<mxfile host="www.draw.io" modified="2020-03-03T12:06:23.716Z" agent="Mozilla/5.0 (Macintosh; Intel Mac OS X 10_15_3) AppleWebKit/537.36 (KHTML, like Gecko) Chrome/80.0.3987.122 Safari/537.36" etag="FN1Umcq7lDE63UByJyxQ" version="12.7.9" type="github">
  <diagram id="C5RBs43oDa-KdzZeNtuy" name="DB設計">
    <mxGraphModel dx="946" dy="646" grid="1" gridSize="10" guides="1" tooltips="1" connect="1" arrows="1" fold="1" page="1" pageScale="1" pageWidth="827" pageHeight="1169" math="0" shadow="0">
      <root>
        <mxCell id="WIyWlLk6GJQsqaUBKTNV-0" />
        <mxCell id="WIyWlLk6GJQsqaUBKTNV-1" parent="WIyWlLk6GJQsqaUBKTNV-0" />
        <mxCell id="EEWBQWQVXfVOWUx769oe-0" value="席替え&lt;br&gt;&amp;lt;サーバー&amp;gt;" style="html=1;" vertex="1" parent="WIyWlLk6GJQsqaUBKTNV-1">
          <mxGeometry x="359" width="110" height="50" as="geometry" />
        </mxCell>
        <mxCell id="EEWBQWQVXfVOWUx769oe-3" style="edgeStyle=orthogonalEdgeStyle;rounded=0;orthogonalLoop=1;jettySize=auto;html=1;endArrow=diamond;endFill=0;endSize=10;" edge="1" parent="WIyWlLk6GJQsqaUBKTNV-1" source="EEWBQWQVXfVOWUx769oe-1" target="EEWBQWQVXfVOWUx769oe-0">
          <mxGeometry relative="1" as="geometry" />
        </mxCell>
        <mxCell id="EEWBQWQVXfVOWUx769oe-1" value="ユーザーデータ&lt;br&gt;&amp;lt;データベース&amp;gt;" style="html=1;" vertex="1" parent="WIyWlLk6GJQsqaUBKTNV-1">
          <mxGeometry x="249" y="100" width="110" height="50" as="geometry" />
        </mxCell>
        <mxCell id="EEWBQWQVXfVOWUx769oe-4" style="edgeStyle=orthogonalEdgeStyle;rounded=0;orthogonalLoop=1;jettySize=auto;html=1;endArrow=diamond;endFill=0;endSize=10;" edge="1" parent="WIyWlLk6GJQsqaUBKTNV-1" source="EEWBQWQVXfVOWUx769oe-2" target="EEWBQWQVXfVOWUx769oe-0">
          <mxGeometry relative="1" as="geometry" />
        </mxCell>
        <mxCell id="EEWBQWQVXfVOWUx769oe-2" value="グループ&lt;br&gt;&amp;lt;データベース&amp;gt;" style="html=1;" vertex="1" parent="WIyWlLk6GJQsqaUBKTNV-1">
          <mxGeometry x="469" y="100" width="110" height="50" as="geometry" />
        </mxCell>
        <mxCell id="EEWBQWQVXfVOWUx769oe-12" style="edgeStyle=orthogonalEdgeStyle;rounded=0;orthogonalLoop=1;jettySize=auto;html=1;endArrow=diamond;endFill=0;endSize=10;" edge="1" parent="WIyWlLk6GJQsqaUBKTNV-1" source="EEWBQWQVXfVOWUx769oe-8" target="EEWBQWQVXfVOWUx769oe-1">
          <mxGeometry relative="1" as="geometry" />
        </mxCell>
        <mxCell id="EEWBQWQVXfVOWUx769oe-8" value="ユーザーデータ&#xa;&lt;テーブル&gt;" style="swimlane;fontStyle=0;childLayout=stackLayout;horizontal=1;startSize=37;fillColor=none;horizontalStack=0;resizeParent=1;resizeParentMax=0;resizeLast=0;collapsible=1;marginBottom=0;" vertex="1" parent="WIyWlLk6GJQsqaUBKTNV-1">
          <mxGeometry x="69" y="190" width="180" height="90" as="geometry" />
        </mxCell>
        <mxCell id="EEWBQWQVXfVOWUx769oe-10" value="+ UserID int not null pri&#xa;+ UserName nvarchar not null &#xa;+ JoinOrganization nvarchar " style="text;strokeColor=none;fillColor=none;align=left;verticalAlign=top;spacingLeft=4;spacingRight=4;overflow=hidden;rotatable=0;points=[[0,0.5],[1,0.5]];portConstraint=eastwest;" vertex="1" parent="EEWBQWQVXfVOWUx769oe-8">
          <mxGeometry y="37" width="180" height="53" as="geometry" />
        </mxCell>
        <mxCell id="EEWBQWQVXfVOWUx769oe-33" style="edgeStyle=orthogonalEdgeStyle;rounded=0;orthogonalLoop=1;jettySize=auto;html=1;endArrow=diamond;endFill=0;endSize=10;" edge="1" parent="WIyWlLk6GJQsqaUBKTNV-1" source="EEWBQWQVXfVOWUx769oe-13" target="EEWBQWQVXfVOWUx769oe-2">
          <mxGeometry relative="1" as="geometry" />
        </mxCell>
        <mxCell id="EEWBQWQVXfVOWUx769oe-13" value="グループ管理&#xa;&lt;テーブル&gt;" style="swimlane;fontStyle=0;childLayout=stackLayout;horizontal=1;startSize=37;fillColor=none;horizontalStack=0;resizeParent=1;resizeParentMax=0;resizeLast=0;collapsible=1;marginBottom=0;" vertex="1" parent="WIyWlLk6GJQsqaUBKTNV-1">
          <mxGeometry x="380" y="190" width="140" height="80" as="geometry" />
        </mxCell>
        <mxCell id="EEWBQWQVXfVOWUx769oe-14" value="+ 参加者ID pri&#xa;+ Is管理者 bool" style="text;strokeColor=none;fillColor=none;align=left;verticalAlign=top;spacingLeft=4;spacingRight=4;overflow=hidden;rotatable=0;points=[[0,0.5],[1,0.5]];portConstraint=eastwest;" vertex="1" parent="EEWBQWQVXfVOWUx769oe-13">
          <mxGeometry y="37" width="140" height="43" as="geometry" />
        </mxCell>
        <mxCell id="EEWBQWQVXfVOWUx769oe-34" style="edgeStyle=orthogonalEdgeStyle;rounded=0;orthogonalLoop=1;jettySize=auto;html=1;endArrow=diamond;endFill=0;endSize=10;" edge="1" parent="WIyWlLk6GJQsqaUBKTNV-1" source="EEWBQWQVXfVOWUx769oe-20" target="EEWBQWQVXfVOWUx769oe-2">
          <mxGeometry relative="1" as="geometry" />
        </mxCell>
        <mxCell id="EEWBQWQVXfVOWUx769oe-20" value="テーブル管理&#xa;&lt;テーブル&gt;" style="swimlane;fontStyle=0;childLayout=stackLayout;horizontal=1;startSize=40;fillColor=none;horizontalStack=0;resizeParent=1;resizeParentMax=0;resizeLast=0;collapsible=1;marginBottom=0;" vertex="1" parent="WIyWlLk6GJQsqaUBKTNV-1">
          <mxGeometry x="550" y="190" width="140" height="120" as="geometry" />
        </mxCell>
        <mxCell id="EEWBQWQVXfVOWUx769oe-22" value="+ 学年&#xa;+ クラス&#xa;+ 管理者ID&#xa;&#xa;pri (学年,クラス)" style="text;strokeColor=none;fillColor=none;align=left;verticalAlign=top;spacingLeft=4;spacingRight=4;overflow=hidden;rotatable=0;points=[[0,0.5],[1,0.5]];portConstraint=eastwest;" vertex="1" parent="EEWBQWQVXfVOWUx769oe-20">
          <mxGeometry y="40" width="140" height="80" as="geometry" />
        </mxCell>
        <mxCell id="EEWBQWQVXfVOWUx769oe-37" style="edgeStyle=orthogonalEdgeStyle;rounded=0;orthogonalLoop=1;jettySize=auto;html=1;endArrow=diamond;endFill=0;endSize=10;" edge="1" parent="WIyWlLk6GJQsqaUBKTNV-1" source="EEWBQWQVXfVOWUx769oe-25" target="EEWBQWQVXfVOWUx769oe-20">
          <mxGeometry relative="1" as="geometry" />
        </mxCell>
        <mxCell id="EEWBQWQVXfVOWUx769oe-25" value="Roster学年クラス&#xa;&lt;テーブル&gt;" style="swimlane;fontStyle=0;childLayout=stackLayout;horizontal=1;startSize=37;fillColor=none;horizontalStack=0;resizeParent=1;resizeParentMax=0;resizeLast=0;collapsible=1;marginBottom=0;" vertex="1" parent="WIyWlLk6GJQsqaUBKTNV-1">
          <mxGeometry x="410" y="400" width="140" height="91" as="geometry" />
        </mxCell>
        <mxCell id="EEWBQWQVXfVOWUx769oe-27" value="+ 番号&#xa;+ 名前&#xa;+ 性別&#xa;" style="text;strokeColor=none;fillColor=none;align=left;verticalAlign=top;spacingLeft=4;spacingRight=4;overflow=hidden;rotatable=0;points=[[0,0.5],[1,0.5]];portConstraint=eastwest;" vertex="1" parent="EEWBQWQVXfVOWUx769oe-25">
          <mxGeometry y="37" width="140" height="54" as="geometry" />
        </mxCell>
        <mxCell id="EEWBQWQVXfVOWUx769oe-36" style="edgeStyle=orthogonalEdgeStyle;rounded=0;orthogonalLoop=1;jettySize=auto;html=1;endArrow=diamond;endFill=0;endSize=10;" edge="1" parent="WIyWlLk6GJQsqaUBKTNV-1" source="EEWBQWQVXfVOWUx769oe-29" target="EEWBQWQVXfVOWUx769oe-20">
          <mxGeometry relative="1" as="geometry" />
        </mxCell>
        <mxCell id="EEWBQWQVXfVOWUx769oe-29" value="SeatData学年クラス&#xa;&lt;テーブル&gt;" style="swimlane;fontStyle=0;childLayout=stackLayout;horizontal=1;startSize=34;fillColor=none;horizontalStack=0;resizeParent=1;resizeParentMax=0;resizeLast=0;collapsible=1;marginBottom=0;" vertex="1" parent="WIyWlLk6GJQsqaUBKTNV-1">
          <mxGeometry x="690" y="400" width="140" height="60" as="geometry" />
        </mxCell>
        <mxCell id="EEWBQWQVXfVOWUx769oe-31" value="+ Column1" style="text;strokeColor=none;fillColor=none;align=left;verticalAlign=top;spacingLeft=4;spacingRight=4;overflow=hidden;rotatable=0;points=[[0,0.5],[1,0.5]];portConstraint=eastwest;" vertex="1" parent="EEWBQWQVXfVOWUx769oe-29">
          <mxGeometry y="34" width="140" height="26" as="geometry" />
        </mxCell>
        <mxCell id="EEWBQWQVXfVOWUx769oe-46" style="edgeStyle=orthogonalEdgeStyle;rounded=0;orthogonalLoop=1;jettySize=auto;html=1;endArrow=diamond;endFill=0;endSize=10;" edge="1" parent="WIyWlLk6GJQsqaUBKTNV-1" source="EEWBQWQVXfVOWUx769oe-38" target="EEWBQWQVXfVOWUx769oe-1">
          <mxGeometry relative="1" as="geometry">
            <Array as="points">
              <mxPoint x="70" y="300" />
              <mxPoint x="304" y="300" />
            </Array>
          </mxGeometry>
        </mxCell>
        <mxCell id="EEWBQWQVXfVOWUx769oe-38" value="Roster + ID&#xa;&lt;テーブル&gt;" style="swimlane;fontStyle=0;childLayout=stackLayout;horizontal=1;startSize=37;fillColor=none;horizontalStack=0;resizeParent=1;resizeParentMax=0;resizeLast=0;collapsible=1;marginBottom=0;" vertex="1" parent="WIyWlLk6GJQsqaUBKTNV-1">
          <mxGeometry y="320" width="140" height="91" as="geometry" />
        </mxCell>
        <mxCell id="EEWBQWQVXfVOWUx769oe-39" value="+ 番号&#xa;+ 名前&#xa;+ 性別" style="text;strokeColor=none;fillColor=none;align=left;verticalAlign=top;spacingLeft=4;spacingRight=4;overflow=hidden;rotatable=0;points=[[0,0.5],[1,0.5]];portConstraint=eastwest;" vertex="1" parent="EEWBQWQVXfVOWUx769oe-38">
          <mxGeometry y="37" width="140" height="54" as="geometry" />
        </mxCell>
        <mxCell id="EEWBQWQVXfVOWUx769oe-47" style="edgeStyle=orthogonalEdgeStyle;rounded=0;orthogonalLoop=1;jettySize=auto;html=1;endArrow=diamond;endFill=0;endSize=10;" edge="1" parent="WIyWlLk6GJQsqaUBKTNV-1" source="EEWBQWQVXfVOWUx769oe-42" target="EEWBQWQVXfVOWUx769oe-1">
          <mxGeometry relative="1" as="geometry">
            <Array as="points">
              <mxPoint x="250" y="300" />
              <mxPoint x="304" y="300" />
            </Array>
          </mxGeometry>
        </mxCell>
        <mxCell id="EEWBQWQVXfVOWUx769oe-42" value="SeatData + ID&#xa;&lt;テーブル&gt;" style="swimlane;fontStyle=0;childLayout=stackLayout;horizontal=1;startSize=40;fillColor=none;horizontalStack=0;resizeParent=1;resizeParentMax=0;resizeLast=0;collapsible=1;marginBottom=0;" vertex="1" parent="WIyWlLk6GJQsqaUBKTNV-1">
          <mxGeometry x="180" y="320" width="140" height="66" as="geometry" />
        </mxCell>
        <mxCell id="EEWBQWQVXfVOWUx769oe-43" value="+ Column1" style="text;strokeColor=none;fillColor=none;align=left;verticalAlign=top;spacingLeft=4;spacingRight=4;overflow=hidden;rotatable=0;points=[[0,0.5],[1,0.5]];portConstraint=eastwest;" vertex="1" parent="EEWBQWQVXfVOWUx769oe-42">
          <mxGeometry y="40" width="140" height="26" as="geometry" />
        </mxCell>
      </root>
    </mxGraphModel>
  </diagram>
</mxfile>
